<?xml version="1.0" standalone="no"?>
<!DOCTYPE svg PUBLIC "-//W3C//DTD SVG 20010904//EN"
 "http://www.w3.org/TR/2001/REC-SVG-20010904/DTD/svg10.dtd">
<svg version="1.0" xmlns="http://www.w3.org/2000/svg"
 width="555.000000pt" height="517.000000pt" viewBox="0 0 555.000000 517.000000"
 preserveAspectRatio="xMidYMid meet">

<g transform="translate(0.000000,517.000000) scale(0.100000,-0.100000)"
fill="#000000" stroke="none">
<path d="M4925 4800 c-11 -12 -19 -24 -17 -26 7 -12 0 -34 -8 -29 -8 5 -7 11
1 21 17 21 -5 17 -24 -4 -23 -25 -21 -35 3 -27 13 4 20 2 20 -7 0 -7 12 6 26
30 29 48 28 74 -1 42z"/>
<path d="M4680 4565 c-90 -90 -161 -167 -158 -171 4 -3 14 6 24 21 9 14 23 24
30 21 8 -3 14 0 14 7 1 16 49 71 56 64 3 -3 -6 -16 -20 -28 -15 -13 -24 -29
-22 -36 5 -12 -6 -17 -26 -14 -4 0 -16 -11 -27 -25 -12 -15 -25 -23 -32 -18
-7 4 -24 -7 -41 -27 -16 -19 -67 -73 -114 -121 -46 -47 -84 -94 -85 -105 0
-10 -3 -13 -5 -7 -7 17 -130 -117 -132 -143 0 -16 3 -20 15 -16 13 5 15 2 9
-13 -6 -15 -5 -17 5 -6 10 9 10 15 1 24 -16 16 -15 31 1 22 9 -6 9 -4 -1 8
-11 14 -10 16 7 11 19 -5 26 4 23 28 -1 4 9 15 21 25 12 10 16 12 10 4 -15
-17 -17 -30 -3 -30 5 0 12 11 16 25 4 16 13 25 25 25 25 0 24 -16 0 -23 -21
-5 -25 -41 -8 -64 5 -7 4 -19 -2 -30 -10 -17 -11 -16 -17 5 -8 26 -44 31 -44
5 -1 -21 -23 -53 -37 -53 -5 0 -17 8 -26 18 -13 14 -14 21 -5 30 7 7 8 12 3
11 -6 0 -21 -14 -35 -32 -14 -17 -18 -27 -10 -22 29 18 46 14 22 -5 -13 -11
-29 -17 -36 -14 -14 5 -143 -132 -139 -147 2 -5 -3 -9 -10 -9 -19 0 -79 -65
-70 -75 5 -4 3 -5 -3 -2 -7 4 -17 0 -24 -8 -7 -8 -9 -15 -5 -15 4 0 2 -7 -5
-15 -8 -9 -9 -15 -2 -15 6 0 14 5 17 10 4 6 11 7 17 4 7 -5 9 -1 5 9 -4 11 -1
17 9 17 8 0 17 -7 20 -15 4 -8 12 -15 20 -15 8 0 14 -7 14 -15 0 -18 -12 -19
-28 -3 -9 9 -15 9 -24 0 -14 -14 -32 -16 -23 -2 3 5 -8 7 -27 5 -23 -3 -47
-18 -79 -52 -45 -48 -46 -50 -42 -104 4 -62 -4 -75 -52 -81 -25 -2 -30 -7 -28
-26 2 -13 -1 -21 -6 -18 -5 3 -12 -1 -15 -10 -4 -9 -9 -14 -13 -11 -3 4 0 13
7 22 10 12 10 18 0 30 -11 14 -7 19 12 16 4 0 5 5 2 13 -3 8 -1 17 5 21 6 3
11 -1 11 -9 0 -9 8 -16 18 -16 24 1 52 24 52 44 0 23 -17 20 -23 -4 -3 -11
-13 -20 -24 -19 -10 0 -13 3 -5 6 6 2 12 11 12 19 0 8 5 14 11 14 5 0 7 4 4
10 -3 5 0 7 9 4 10 -4 14 0 13 14 -1 17 -9 13 -47 -26 -84 -87 -240 -260 -240
-268 0 -4 15 9 34 29 18 20 40 37 47 37 10 -1 9 -4 -3 -14 -10 -7 -14 -17 -10
-21 4 -5 2 -5 -5 -2 -6 4 -20 -4 -31 -18 -12 -15 -26 -23 -35 -20 -8 4 -21 -4
-30 -17 -9 -13 -41 -50 -71 -83 -62 -66 -61 -69 9 -101 17 -7 26 -13 21 -14
-5 0 24 -24 65 -52 41 -29 77 -52 82 -50 4 1 7 -2 7 -7 0 -15 91 -70 106 -64
10 4 13 0 8 -13 -4 -14 0 -12 15 6 23 28 28 45 9 33 -7 -4 -22 -9 -33 -10 -18
-3 -18 -2 3 17 13 12 30 19 40 16 12 -4 25 6 44 37 15 23 52 77 83 120 55 79
64 97 45 97 -6 0 -10 -6 -8 -12 1 -7 -4 -23 -12 -35 -13 -20 -15 -20 -27 -5
-12 15 -12 15 -6 -2 4 -12 3 -17 -4 -13 -6 4 -17 -1 -24 -11 -13 -15 -12 -16
4 -3 15 12 17 11 17 -3 0 -24 -44 -17 -48 8 -3 13 0 16 9 11 9 -6 11 -3 6 9
-4 9 -3 15 2 11 5 -3 11 1 14 7 3 10 9 10 24 1 31 -18 44 2 26 37 -14 30 -5
70 17 70 17 0 11 57 -6 64 -22 8 -15 70 9 74 15 3 17 -2 11 -37 -8 -52 5 -53
45 -4 17 21 31 32 31 26 0 -7 -4 -14 -10 -18 -5 -3 -6 -13 -3 -21 5 -13 9 -10
19 12 12 25 13 25 7 4 -5 -22 -4 -23 11 -11 9 7 16 22 16 32 0 21 18 35 30 23
9 -11 -55 -95 -66 -86 -4 4 -4 -1 -1 -10 4 -12 2 -15 -8 -11 -8 3 -12 10 -9
15 4 6 -4 5 -16 -2 -17 -9 -21 -18 -18 -41 3 -21 1 -26 -8 -19 -8 7 -16 3 -29
-16 -9 -14 -14 -28 -11 -32 3 -3 6 1 6 8 0 9 5 8 19 -4 18 -16 20 -15 42 21
13 21 22 44 21 52 -2 7 1 10 7 7 5 -4 15 4 22 16 7 13 25 38 40 57 21 26 26
38 18 47 -6 7 -8 18 -4 24 3 5 -1 17 -9 26 -20 20 -20 34 0 34 10 0 14 -6 11
-14 -4 -10 0 -14 13 -11 11 2 22 -1 26 -6 3 -5 2 -8 -3 -7 -4 2 -9 -1 -10 -6
-1 -5 -7 -12 -13 -16 -8 -5 -9 -10 -2 -14 6 -4 23 14 38 39 20 35 24 49 15 58
-9 9 -16 9 -31 -1 -25 -15 -30 -15 -30 1 0 16 44 67 58 67 6 0 10 -14 9 -32
-1 -17 3 -33 9 -35 13 -4 60 65 50 74 -3 4 -6 3 -6 -2 0 -4 -7 -2 -15 5 -17
14 -20 30 -5 30 6 0 10 -6 10 -13 0 -27 32 -13 59 27 146 213 159 233 126 206
-12 -10 -15 -10 -15 4 0 9 -5 16 -12 16 -6 0 -8 3 -5 6 4 4 12 3 19 -3 7 -5
18 -9 25 -9 18 1 62 66 56 82 -3 9 0 14 7 12 20 -5 23 18 5 36 -9 9 -25 16
-36 16 -20 0 -26 24 -9 35 6 3 10 21 10 40 0 53 8 64 56 71 33 5 50 2 69 -10
27 -18 25 -39 -2 -29 -12 5 -15 2 -10 -10 4 -11 -1 -25 -12 -36 -19 -19 -19
-19 -25 5 -4 14 -4 29 -1 34 4 6 2 10 -4 10 -5 0 -12 -13 -16 -30 -4 -16 -10
-32 -15 -35 -8 -5 3 -61 13 -72 2 -2 27 30 55 70 28 41 48 77 45 81 -3 3 -2 6
4 6 6 0 17 10 26 23 14 22 14 23 -8 23 -18 0 -22 -3 -15 -16 6 -12 4 -16 -10
-17 -19 -2 -34 22 -24 38 3 5 10 7 15 3 6 -3 13 3 16 14 3 12 15 22 27 24 17
2 21 9 20 40 -1 33 1 36 17 27 13 -6 19 -6 19 1 0 5 -4 10 -9 10 -5 0 -7 9 -4
20 3 11 9 20 14 20 5 0 6 -7 3 -15 -4 -8 -1 -15 5 -15 6 0 11 12 11 26 0 15 7
32 15 38 9 7 11 16 6 24 -6 11 -14 8 -35 -13 -14 -14 -26 -34 -26 -43 0 -15
-2 -15 -11 -2 -9 12 -10 12 -5 -4 4 -12 -4 -30 -24 -52 -16 -19 -30 -39 -30
-44 0 -6 -7 -10 -15 -10 -8 0 -15 7 -15 15 0 8 -7 15 -15 15 -8 0 -15 -9 -15
-20 0 -11 -7 -20 -15 -20 -9 0 -18 -6 -21 -13 -5 -15 -77 -18 -90 -4 -5 4 -1
5 8 2 18 -7 38 21 31 43 -3 6 0 12 5 12 16 0 20 -23 9 -45 -10 -20 -10 -20 12
0 13 11 18 21 12 23 -6 2 -11 8 -11 14 0 6 7 8 15 4 13 -5 14 -2 4 15 -6 11
-9 22 -7 22 2 1 14 11 27 22 22 18 24 18 18 2 -6 -15 -3 -17 16 -12 18 6 20 5
10 -6 -7 -7 -13 -16 -13 -21 0 -13 30 3 63 34 27 24 30 30 17 38 -24 16 -48
12 -46 -7 2 -25 -28 -23 -32 2 -2 16 -1 17 7 6 8 -12 11 -9 17 13 5 20 9 24
15 15 6 -11 12 -10 27 4 18 17 20 17 26 1 6 -14 11 -12 36 16 23 25 27 36 19
47 -9 10 -5 12 21 9 17 -2 36 -8 42 -14 11 -11 19 -61 9 -60 -20 2 -30 -4 -25
-16 3 -8 1 -23 -6 -33 -9 -16 -10 -15 -4 6 4 16 3 21 -5 17 -6 -4 -11 -17 -12
-29 0 -21 -11 -42 -53 -101 -10 -15 -17 -29 -14 -31 5 -5 108 147 107 159 0 5
5 12 13 17 7 5 13 16 13 26 0 10 4 17 8 15 13 -5 58 68 51 81 -4 7 -4 9 1 5 8
-7 45 38 67 82 7 14 15 27 18 30 11 11 80 120 82 131 2 7 11 20 20 30 21 22
14 56 -8 38 -10 -8 -14 -8 -14 0 0 6 -3 11 -8 11 -4 0 -81 -74 -172 -165z
m195 129 c-9 -7 -18 -22 -20 -34 -6 -33 -15 -37 -22 -12 -3 12 -9 19 -14 16
-5 -3 -5 -14 1 -25 14 -25 -15 -88 -33 -70 -8 8 -5 15 11 27 12 8 22 20 22 26
0 6 -8 4 -18 -5 -21 -19 -32 -22 -32 -7 0 6 6 10 14 10 16 0 31 18 22 27 -9 9
-41 -29 -42 -51 -1 -11 5 -26 13 -34 8 -9 10 -18 5 -21 -5 -3 -19 -25 -31 -48
-23 -46 -43 -58 -33 -20 5 20 4 21 -13 7 -17 -14 -18 -13 -12 3 3 9 2 17 -3
17 -6 0 -10 -6 -10 -12 0 -9 -4 -8 -11 2 -8 12 -9 9 -5 -12 3 -15 2 -29 -3
-32 -11 -7 -23 22 -15 35 3 5 7 19 9 30 5 24 15 38 15 21 0 -7 5 -12 11 -12 6
0 9 6 6 14 -7 17 39 70 53 61 5 -3 7 0 5 7 -3 8 9 24 27 38 18 13 40 33 49 45
9 11 28 20 43 20 22 0 24 -2 11 -11z m-225 -261 l12 -28 10 25 c6 15 12 20 15
12 3 -7 0 -19 -7 -27 -6 -8 -9 -18 -6 -24 3 -5 -3 -20 -14 -32 -11 -13 -19
-20 -20 -16 0 5 7 15 15 24 19 18 9 39 -11 22 -10 -8 -17 -7 -29 5 -20 19 -11
38 13 29 14 -5 15 -3 5 8 -15 15 -17 29 -5 29 5 0 15 -12 22 -27z m-76 -38
c-4 -8 -11 -15 -16 -15 -6 0 -5 6 2 15 7 8 14 15 16 15 2 0 1 -7 -2 -15z m-51
-31 c6 -7 -20 -33 -51 -52 -29 -16 -28 -8 5 28 27 30 35 35 46 24z m-103 -254
c0 -5 -4 -10 -10 -10 -5 0 -10 5 -10 10 0 6 5 10 10 10 6 0 10 -4 10 -10z
m-56 -167 c-7 -26 -6 -27 12 -13 18 14 18 14 5 -3 -14 -18 -16 -18 -28 -1 -9
13 -10 21 -2 31 17 20 20 16 13 -14z m-130 -4 c-3 -5 -10 -7 -15 -3 -5 3 -7
10 -3 15 3 5 10 7 15 3 5 -3 7 -10 3 -15z m-139 -53 c-1 -13 -8 -20 -18 -18
-8 1 -18 -7 -22 -18 -3 -11 -11 -21 -16 -21 -5 -1 -15 -2 -21 -3 -14 -2 -14
-9 -3 -38 5 -13 2 -18 -8 -18 -9 0 -18 4 -22 10 -3 5 -13 6 -22 3 -9 -4 -2 9
16 29 17 20 39 44 47 54 9 11 12 12 8 4 -7 -13 -5 -13 9 -1 9 7 14 18 10 25
-4 6 1 5 10 -3 15 -12 17 -12 12 1 -3 8 0 15 8 15 7 0 13 -9 12 -21z m209 -38
c-3 -5 -11 -4 -18 1 -7 6 -16 8 -19 4 -4 -3 -7 6 -7 20 l0 27 25 -22 c13 -11
22 -25 19 -30z m-21 -39 c-8 -31 -22 -32 -29 -3 -4 17 -2 29 7 35 17 10 28 -7
22 -32z m-168 -30 c4 -19 15 -33 26 -36 21 -6 21 -6 13 -27 -10 -26 -30 -18
-50 19 -10 19 -22 35 -26 35 -5 0 -8 9 -8 20 0 34 37 25 45 -11z m92 -9 c7
-11 9 -21 3 -25 -5 -3 -11 -1 -15 4 -3 6 -12 8 -20 4 -9 -3 -15 1 -15 9 0 33
29 38 47 8z m-267 -39 c16 -31 12 -51 -10 -51 -12 0 -20 6 -19 13 3 25 -1 38
-11 32 -6 -4 -8 -10 -6 -14 3 -4 -2 -8 -10 -8 -11 0 -9 6 8 24 26 28 34 29 48
4z m290 -11 c0 -5 -4 -10 -10 -10 -5 0 -10 5 -10 10 0 6 5 10 10 10 6 0 10 -4
10 -10z m-24 -44 c-4 -17 -11 -23 -21 -20 -9 4 -15 0 -16 -10 -1 -9 -3 -20 -4
-26 -1 -5 -3 -13 -4 -16 0 -4 -8 -1 -17 7 -12 10 -17 10 -23 0 -7 -10 -9 -10
-13 1 -10 25 -8 33 10 34 9 1 22 2 29 3 7 0 20 17 29 37 19 40 41 33 30 -10z
m-149 -63 c3 -10 13 -26 21 -35 18 -21 9 -50 -13 -42 -19 8 -32 -23 -16 -39
14 -14 14 -44 1 -52 -6 -3 -7 1 -4 10 4 8 -2 27 -11 41 -14 22 -15 28 -4 35
12 7 11 14 -5 43 -10 19 -15 39 -12 45 11 17 36 13 43 -6z m80 -38 c-8 -8 -16
-10 -22 -4 -6 7 -5 13 5 19 20 12 32 2 17 -15z m-361 -7 c-1 -13 1 -38 6 -56
11 -41 0 -57 -41 -60 -22 -2 -31 2 -31 13 0 8 6 15 13 15 8 0 22 9 32 20 15
17 16 24 7 46 -15 31 -15 37 -2 29 6 -3 10 -1 10 4 0 6 2 11 5 11 3 0 3 -10 1
-22z m190 -2 c8 -34 1 -61 -16 -61 -8 0 -16 8 -18 18 -5 25 6 67 18 67 5 0 12
-11 16 -24z m-227 -32 c-15 -18 -22 -13 -13 10 3 9 10 13 16 10 5 -3 4 -12 -3
-20z m371 1 c-7 -9 -15 -13 -17 -11 -7 7 7 26 19 26 6 0 6 -6 -2 -15z m-530
-171 c0 -9 -9 -18 -20 -21 -20 -5 -26 -18 -12 -26 4 -2 1 -2 -7 0 -8 2 -11 -2
-8 -11 4 -10 1 -13 -8 -9 -16 6 -10 18 30 60 25 26 25 26 25 7z m44 -64 c-5
-5 -20 -7 -32 -3 l-23 6 23 12 c25 13 49 2 32 -15z m-48 -42 c-3 -17 -13 -39
-21 -48 -14 -16 -91 -46 -107 -42 -12 3 -10 -16 4 -38 7 -10 9 -23 4 -27 -4
-4 -12 0 -17 10 -6 9 -17 17 -25 17 -8 0 -13 4 -9 9 3 6 -4 9 -15 8 -23 -1
-28 -17 -5 -17 8 0 15 -7 15 -16 0 -23 -20 -55 -31 -49 -5 4 -9 1 -9 -4 0 -6
-11 -11 -24 -11 -23 0 -51 -22 -41 -32 3 -2 -2 -5 -10 -5 -8 0 -11 5 -8 10 4
7 -1 8 -12 3 -11 -4 0 12 23 34 23 23 46 39 52 35 6 -3 7 0 4 9 -8 20 0 20 20
0 9 -8 16 -11 16 -6 0 5 -7 15 -15 22 -12 10 -13 16 -4 26 6 8 15 11 20 8 5
-3 9 0 9 6 0 6 4 9 9 6 15 -10 39 4 44 26 3 11 10 17 15 14 5 -3 19 6 32 19
19 20 26 22 38 13 11 -10 13 -8 11 7 -4 26 8 45 28 45 12 0 14 -7 9 -32z m133
-117 c11 -7 7 -13 -17 -25 -18 -9 -39 -30 -48 -48 -12 -24 -18 -28 -25 -17
-15 23 -10 36 22 68 32 32 45 37 68 22z m124 -18 c-4 -10 -9 -11 -19 -2 -18
15 -18 15 5 15 11 0 17 -5 14 -13z m-368 -64 c5 -14 -1 -27 -20 -45 -16 -14
-24 -29 -19 -34 5 -4 38 -4 73 2 58 9 66 8 78 -8 16 -22 17 -44 2 -44 -7 0
-27 9 -45 21 -31 19 -36 19 -63 6 -27 -13 -31 -13 -50 4 -11 11 -25 19 -31 19
-15 0 -12 17 5 24 8 3 23 21 32 41 19 40 29 44 38 14z m249 -85 c3 -7 -6 -23
-19 -36 -13 -14 -29 -36 -34 -51 -6 -15 -15 -27 -20 -27 -17 0 -24 21 -12 33
9 9 11 7 6 -8 -5 -16 -5 -17 3 -5 6 8 9 17 6 22 -2 4 5 12 16 18 23 12 27 30
6 30 -8 0 -16 6 -19 13 -2 6 -8 8 -13 4 -5 -4 -3 -12 5 -16 11 -7 10 -12 -1
-30 -7 -11 -17 -20 -23 -18 -15 5 -12 32 3 29 9 -1 10 6 6 24 -6 25 -5 26 20
20 18 -4 25 -3 21 4 -4 6 4 9 19 8 14 -1 28 -8 30 -14z m-334 -11 c0 8 18 -5
50 -36 12 -12 25 -17 38 -13 11 4 33 4 48 0 l27 -7 -24 -19 c-18 -14 -20 -17
-5 -11 14 5 17 3 11 -7 -5 -9 -4 -11 4 -6 6 4 9 12 6 17 -4 5 -1 9 4 9 6 0 11
-9 11 -19 0 -15 -5 -19 -21 -16 -12 2 -27 9 -35 15 -7 7 -18 9 -24 5 -5 -3
-10 -2 -10 4 0 5 3 11 8 14 4 2 1 2 -5 1 -17 -4 -44 6 -39 15 3 4 -11 15 -30
26 -19 10 -34 25 -34 34 0 14 2 14 10 1 5 -8 10 -11 10 -7z"/>
<path d="M4830 4679 c0 -5 5 -7 10 -4 6 3 10 8 10 11 0 2 -4 4 -10 4 -5 0 -10
-5 -10 -11z"/>
<path d="M4713 4563 c-18 -16 -19 -20 -6 -32 8 -7 17 -10 21 -6 3 3 1 9 -5 13
-7 5 -6 12 5 22 14 13 15 12 8 -5 -6 -16 -5 -18 5 -7 22 21 -4 35 -28 15z"/>
<path d="M4742 4528 c-7 -7 -12 -21 -12 -32 1 -18 3 -17 16 7 17 31 15 44 -4
25z"/>
<path d="M4489 4343 c-13 -16 -12 -17 4 -4 9 7 17 15 17 17 0 8 -8 3 -21 -13z"/>
<path d="M3985 3800 c-3 -5 -1 -10 4 -10 6 0 11 5 11 10 0 6 -2 10 -4 10 -3 0
-8 -4 -11 -10z"/>
<path d="M4265 3819 c-4 -6 -5 -12 -2 -15 2 -3 7 2 10 11 7 17 1 20 -8 4z"/>
<path d="M3910 3736 c0 -2 7 -9 15 -16 13 -11 14 -10 9 4 -5 14 -24 23 -24 12z"/>
<path d="M4592 4317 c10 -20 14 -18 21 9 1 4 -6 8 -15 10 -15 2 -16 -1 -6 -19z"/>
<path d="M4475 4280 c-3 -5 -1 -10 4 -10 6 0 11 5 11 10 0 6 -2 10 -4 10 -3 0
-8 -4 -11 -10z"/>
<path d="M4367 4180 c3 -11 9 -17 15 -14 5 3 4 12 -3 20 -16 19 -18 18 -12 -6z"/>
<path d="M4430 4081 c0 -6 4 -13 10 -16 6 -3 7 1 4 9 -7 18 -14 21 -14 7z"/>
<path d="M4386 4001 c-4 -7 -5 -15 -2 -18 9 -9 19 4 14 18 -4 11 -6 11 -12 0z"/>
</g>
</svg>
